<?xml version="1.0" encoding="UTF-8" standalone="no"?>
<svg width="150px" height="100px" viewBox="0 0 150 100" version="1.1" xmlns="http://www.w3.org/2000/svg" xmlns:xlink="http://www.w3.org/1999/xlink">
    <!-- Generator: Sketch 41 (35326) - http://www.bohemiancoding.com/sketch -->
    <title>NHTH-logo</title>
    <desc>Created with Sketch.</desc>
    <defs></defs>
    <g id="Page-1" stroke="none" stroke-width="1" fill="none" fill-rule="evenodd">
        <g id="NHTH-logo">
            <polygon id="Fill-1" fill="#00337F" points="0 99.9791667 150 99.9791667 150 0 0 0"></polygon>
            <polyline id="Fill-3" fill="#FFFFFF" points="18.9375 18.6427083 21.8496528 18.6427083 25.9847222 25.4017361 26.0121528 25.4017361 26.0121528 18.6427083 28.1548611 18.6427083 28.1548611 28.3694444 25.3524306 28.3694444 21.1076389 21.4451389 21.0802083 21.4451389 21.0802083 28.3694444 18.9375 28.3694444 18.9375 18.6427083"></polyline>
            <path d="M36.3569444,21.4729167 L35.1753472,24.4947917 L37.5520833,24.4947917 L36.3569444,21.4729167 Z M35.5322917,18.6427083 L37.3045139,18.6427083 L41.5361111,28.3694444 L39.1177083,28.3694444 L38.2795139,26.3086806 L34.5020833,26.3086806 L33.6913194,28.3694444 L31.3288194,28.3694444 L35.5322917,18.6427083 L35.5322917,18.6427083 Z" id="Fill-4" fill="#FFFFFF"></path>
            <polyline id="Fill-5" fill="#FFFFFF" points="45.3270833 20.5388889 42.5517361 20.5388889 42.5517361 18.6427083 50.2454861 18.6427083 50.2454861 20.5388889 47.4701389 20.5388889 47.4701389 28.3694444 45.3270833 28.3694444 45.3270833 20.5388889"></polyline>
            <polygon id="Fill-6" fill="#FFFFFF" points="53.5010417 28.3694444 55.64375 28.3694444 55.64375 18.6427083 53.5010417 18.6427083"></polygon>
            <path d="M61.4961806,23.50625 C61.4961806,23.9638889 61.5673611,24.3829861 61.7086806,24.7635417 C61.8510417,25.1430556 62.0545139,25.4729167 62.3208333,25.7520833 C62.5861111,26.0319444 62.9048611,26.2489583 63.2753472,26.4048611 C63.6458333,26.5607639 64.0604167,26.6385417 64.51875,26.6385417 C64.9763889,26.6385417 65.3909722,26.5607639 65.7618056,26.4048611 C66.1329861,26.2489583 66.4506944,26.0319444 66.7163194,25.7520833 C66.9815972,25.4729167 67.1861111,25.1430556 67.328125,24.7635417 C67.4697917,24.3829861 67.540625,23.9638889 67.540625,23.50625 C67.540625,23.0576389 67.4697917,22.6409722 67.328125,22.2559028 C67.1861111,21.8708333 66.9815972,21.5395833 66.7163194,21.2597222 C66.4506944,20.9805556 66.1329861,20.7635417 65.7618056,20.6076389 C65.3909722,20.4520833 64.9763889,20.3739583 64.51875,20.3739583 C64.0604167,20.3739583 63.6458333,20.4520833 63.2753472,20.6076389 C62.9048611,20.7635417 62.5861111,20.9805556 62.3208333,21.2597222 C62.0545139,21.5395833 61.8510417,21.8708333 61.7086806,22.2559028 C61.5673611,22.6409722 61.4961806,23.0576389 61.4961806,23.50625 Z M59.2708333,23.50625 C59.2708333,22.728125 59.4010417,22.0222222 59.6618056,21.390625 C59.9229167,20.7583333 60.2875,20.2204861 60.7541667,19.7763889 C61.2215278,19.3322917 61.7753472,18.9913194 62.4166667,18.753125 C63.0576389,18.5145833 63.7579861,18.3951389 64.51875,18.3951389 C65.2784722,18.3951389 65.9795139,18.5145833 66.6201389,18.753125 C67.2618056,18.9913194 67.8152778,19.3322917 68.2826389,19.7763889 C68.7496528,20.2204861 69.1142361,20.7583333 69.375,21.390625 C69.6361111,22.0222222 69.7659722,22.728125 69.7659722,23.50625 C69.7659722,24.2847222 69.6361111,24.9895833 69.375,25.621875 C69.1142361,26.2534722 68.7496528,26.7923611 68.2826389,27.2361111 C67.8152778,27.6802083 67.2618056,28.0215278 66.6201389,28.2597222 C65.9795139,28.4972222 65.2784722,28.6166667 64.51875,28.6166667 C63.7579861,28.6166667 63.0576389,28.4972222 62.4166667,28.2597222 C61.7753472,28.0215278 61.2215278,27.6802083 60.7541667,27.2361111 C60.2875,26.7923611 59.9229167,26.2534722 59.6618056,25.621875 C59.4010417,24.9895833 59.2708333,24.2847222 59.2708333,23.50625 L59.2708333,23.50625 Z" id="Fill-7" fill="#FFFFFF"></path>
            <polyline id="Fill-8" fill="#FFFFFF" points="73.4204861 18.6427083 76.3326389 18.6427083 80.4677083 25.4017361 80.4951389 25.4017361 80.4951389 18.6427083 82.6381944 18.6427083 82.6381944 28.3694444 79.8354167 28.3694444 75.590625 21.4451389 75.5631944 21.4451389 75.5631944 28.3694444 73.4204861 28.3694444 73.4204861 18.6427083"></polyline>
            <path d="M90.8392361,21.4729167 L89.6576389,24.4947917 L92.034375,24.4947917 L90.8392361,21.4729167 Z M90.0152778,18.6427083 L91.7868056,18.6427083 L96.0184028,28.3694444 L93.6006944,28.3694444 L92.7625,26.3086806 L88.984375,26.3086806 L88.1743056,28.3694444 L85.8111111,28.3694444 L90.0152778,18.6427083 L90.0152778,18.6427083 Z" id="Fill-9" fill="#FFFFFF"></path>
            <polyline id="Fill-10" fill="#FFFFFF" points="99.2739583 18.6427083 101.417361 18.6427083 101.417361 26.3913194 105.387153 26.3913194 105.387153 28.3694444 99.2739583 28.3694444 99.2739583 18.6427083"></polyline>
            <polyline id="Fill-11" fill="#00A6CC" points="18.9375 36.4479167 21.0802083 36.4479167 21.0802083 40.075 25.2427083 40.075 25.2427083 36.4479167 27.3857639 36.4479167 27.3857639 46.1746528 25.2427083 46.1746528 25.2427083 41.9704861 21.0802083 41.9704861 21.0802083 46.1746528 18.9375 46.1746528 18.9375 36.4479167"></polyline>
            <path d="M39.7635417,42.4243056 C39.7635417,43.0013889 39.6767361,43.5322917 39.5027778,44.0180556 C39.3288194,44.5027778 39.0701389,44.9243056 38.7267361,45.28125 C38.3833333,45.6388889 37.9552083,45.9180556 37.4423611,46.1194444 C36.9288194,46.3211806 36.3378472,46.421875 35.6701389,46.421875 C34.9923611,46.421875 34.396875,46.3211806 33.8840278,46.1194444 C33.3704861,45.9180556 32.9430556,45.6388889 32.5996528,45.28125 C32.25625,44.9243056 31.996875,44.5027778 31.8229167,44.0180556 C31.6489583,43.5322917 31.5618056,43.0013889 31.5618056,42.4243056 L31.5618056,36.4479167 L33.7055556,36.4479167 L33.7055556,42.3416667 C33.7055556,42.64375 33.753125,42.9236111 33.8493056,43.1798611 C33.9454861,43.4364583 34.0809028,43.6586806 34.2548611,43.8461806 C34.4288194,44.0340278 34.6368056,44.1805556 34.8795139,44.2857639 C35.1222222,44.3909722 35.3854167,44.44375 35.6701389,44.44375 C35.9534722,44.44375 36.2145833,44.3909722 36.4527778,44.2857639 C36.6909722,44.1805556 36.896875,44.0340278 37.0708333,43.8461806 C37.2447917,43.6586806 37.3802083,43.4364583 37.4763889,43.1798611 C37.5722222,42.9236111 37.6208333,42.64375 37.6208333,42.3416667 L37.6208333,36.4479167 L39.7635417,36.4479167 L39.7635417,42.4243056" id="Fill-12" fill="#00A6CC"></path>
            <polyline id="Fill-13" fill="#00A6CC" points="43.9399306 36.4479167 47.1819444 36.4479167 49.4208333 42.7947917 49.4489583 42.7947917 51.7013889 36.4479167 54.9298611 36.4479167 54.9298611 46.1746528 52.7868056 46.1746528 52.7868056 38.7149306 52.7597222 38.7149306 50.2045139 46.1746528 48.5690972 46.1746528 46.1100694 38.7149306 46.0826389 38.7149306 46.0826389 46.1746528 43.9399306 46.1746528 43.9399306 36.4479167"></polyline>
            <path d="M63.1315972,39.2784722 L61.95,42.3003472 L64.3267361,42.3003472 L63.1315972,39.2784722 Z M62.3072917,36.4479167 L64.0795139,36.4479167 L68.3107639,46.1746528 L65.8923611,46.1746528 L65.0545139,44.1142361 L61.2767361,44.1142361 L60.4659722,46.1746528 L58.1038194,46.1746528 L62.3072917,36.4479167 L62.3072917,36.4479167 Z" id="Fill-14" fill="#00A6CC"></path>
            <polyline id="Fill-15" fill="#00A6CC" points="71.4840278 36.4479167 74.3961806 36.4479167 78.5315972 43.2072917 78.5586806 43.2072917 78.5586806 36.4479167 80.7017361 36.4479167 80.7017361 46.1746528 77.8989583 46.1746528 73.6541667 39.2503472 73.6267361 39.2503472 73.6267361 46.1746528 71.4840278 46.1746528 71.4840278 36.4479167"></polyline>
            <polyline id="Fill-16" fill="#00A6CC" points="20.8194444 56.1486111 18.0440972 56.1486111 18.0440972 54.2524306 25.7375 54.2524306 25.7375 56.1486111 22.9621528 56.1486111 22.9621528 63.9791667 20.8194444 63.9791667 20.8194444 56.1486111"></polyline>
            <path d="M31.1638889,58.278125 L32.4270833,58.278125 C32.6201389,58.278125 32.8236111,58.2711806 33.0392361,58.2576389 C33.2541667,58.2430556 33.4482639,58.2024306 33.6232639,58.1333333 C33.7965278,58.0645833 33.9409722,57.9572917 34.0559028,57.8104167 C34.1701389,57.6645833 34.2274306,57.4579861 34.2274306,57.1923611 C34.2274306,56.9451389 34.1767361,56.7486111 34.0763889,56.6017361 C33.9756944,56.4559028 33.846875,56.3430556 33.6913194,56.2652778 C33.5354167,56.1871528 33.3569444,56.1350694 33.1555556,56.1069444 C32.9545139,56.0798611 32.7569444,56.0663194 32.5649306,56.0663194 L31.1638889,56.0663194 L31.1638889,58.278125 Z M29.0204861,54.2524306 L32.7850694,54.2524306 C33.2798611,54.2524306 33.7486111,54.3006944 34.1927083,54.396875 C34.6368056,54.4927083 35.0263889,54.653125 35.3607639,54.8777778 C35.6947917,55.1024306 35.9604167,55.4045139 36.1569444,55.7840278 C36.3545139,56.1645833 36.4527778,56.6388889 36.4527778,57.20625 C36.4527778,57.8930556 36.2743056,58.4767361 35.9173611,58.9579861 C35.559375,59.4388889 35.0375,59.7430556 34.3506944,59.871875 L36.8236111,63.9791667 L34.2548611,63.9791667 L32.2215278,60.0909722 L31.1638889,60.0909722 L31.1638889,63.9791667 L29.0204861,63.9791667 L29.0204861,54.2524306 L29.0204861,54.2524306 Z" id="Fill-17" fill="#00A6CC"></path>
            <path d="M44.1454861,57.0829861 L42.9642361,60.1048611 L45.340625,60.1048611 L44.1454861,57.0829861 Z M43.3211806,54.2524306 L45.0934028,54.2524306 L49.3246528,63.9791667 L46.9065972,63.9791667 L46.0684028,61.91875 L42.2909722,61.91875 L41.4798611,63.9791667 L39.1177083,63.9791667 L43.3211806,54.2524306 L43.3211806,54.2524306 Z" id="Fill-18" fill="#00A6CC"></path>
            <polyline id="Fill-19" fill="#00A6CC" points="52.5805556 54.2524306 59.1059028 54.2524306 59.1059028 56.23125 54.7232639 56.23125 54.7232639 58.2090278 58.7760417 58.2090278 58.7760417 60.1871528 54.7232639 60.1871528 54.7232639 63.9791667 52.5805556 63.9791667 52.5805556 54.2524306"></polyline>
            <polyline id="Fill-20" fill="#00A6CC" points="62.9243056 54.2524306 69.45 54.2524306 69.45 56.23125 65.0680556 56.23125 65.0680556 58.2090278 69.1201389 58.2090278 69.1201389 60.1871528 65.0680556 60.1871528 65.0680556 63.9791667 62.9243056 63.9791667 62.9243056 54.2524306"></polyline>
            <polygon id="Fill-21" fill="#00A6CC" points="73.159375 63.9791667 75.3024306 63.9791667 75.3024306 54.2524306 73.159375 54.2524306"></polygon>
            <path d="M85.8111111,56.7802083 C85.6,56.5239583 85.3413194,56.3270833 85.0350694,56.1895833 C84.728125,56.0524306 84.3732639,55.9836806 83.9701389,55.9836806 C83.5670139,55.9836806 83.1940972,56.0618056 82.8506944,56.2173611 C82.5072917,56.3732639 82.2090278,56.5902778 81.9572917,56.8694444 C81.7052083,57.1493056 81.5086806,57.4805556 81.3666667,57.865625 C81.225,58.2506944 81.1538194,58.6673611 81.1538194,59.1159722 C81.1538194,59.5736111 81.225,59.9927083 81.3666667,60.3732639 C81.5086806,60.753125 81.703125,61.0826389 81.9503472,61.3618056 C82.1979167,61.6416667 82.4881944,61.8586806 82.8232639,62.0145833 C83.1569444,62.1704861 83.5170139,62.2482639 83.9013889,62.2482639 C84.340625,62.2482639 84.7302083,62.1569444 85.0690972,61.9729167 C85.4079861,61.7899306 85.6871528,61.5336806 85.9072917,61.2038194 L87.6930556,62.5364583 C87.2809028,63.1138889 86.7590278,63.5395833 86.1267361,63.8142361 C85.4951389,64.0888889 84.8444444,64.2263889 84.1767361,64.2263889 C83.415625,64.2263889 82.7152778,64.1069444 82.0746528,63.8694444 C81.4329861,63.63125 80.8795139,63.2899306 80.4118056,62.8458333 C79.9451389,62.4020833 79.5805556,61.8635417 79.3197917,61.2315972 C79.0586806,60.5993056 78.9284722,59.8944444 78.9284722,59.1159722 C78.9284722,58.3378472 79.0586806,57.6319444 79.3197917,57.0003472 C79.5805556,56.3680556 79.9451389,55.8302083 80.4118056,55.3861111 C80.8795139,54.9420139 81.4329861,54.6010417 82.0746528,54.3628472 C82.7152778,54.1246528 83.415625,54.0048611 84.1767361,54.0048611 C84.4510417,54.0048611 84.7371528,54.0305556 85.0350694,54.0805556 C85.3322917,54.13125 85.6260417,54.2114583 85.9138889,54.3211806 C86.2020833,54.4315972 86.4791667,54.5774306 86.7454861,54.7607639 C87.0107639,54.9444444 87.2482639,55.1684028 87.459375,55.4336806 L85.8111111,56.7802083" id="Fill-22" fill="#00A6CC"></path>
            <polyline id="Fill-23" fill="#00A6CC" points="91.1409722 54.2524306 93.2847222 54.2524306 93.2847222 58.2916667 97.0621528 54.2524306 99.8645833 54.2524306 95.5371528 58.7725694 100.235417 63.9791667 97.240625 63.9791667 93.2847222 59.3635417 93.2847222 63.9791667 91.1409722 63.9791667 91.1409722 54.2524306"></polyline>
            <polygon id="Fill-24" fill="#00A6CC" points="103.148264 63.9791667 105.290972 63.9791667 105.290972 54.2524306 103.148264 54.2524306"></polygon>
            <polyline id="Fill-25" fill="#00A6CC" points="109.439236 54.2524306 112.352431 54.2524306 116.486806 61.0118056 116.514931 61.0118056 116.514931 54.2524306 118.657639 54.2524306 118.657639 63.9791667 115.855208 63.9791667 111.610069 57.0548611 111.582986 57.0548611 111.582986 63.9791667 109.439236 63.9791667 109.439236 54.2524306"></polyline>
            <path d="M131.639236,63.2923611 C131.007639,63.621875 130.348264,63.8604167 129.661458,64.00625 C128.974306,64.153125 128.273264,64.2263889 127.559375,64.2263889 C126.798958,64.2263889 126.098611,64.1069444 125.457292,63.8694444 C124.816319,63.63125 124.262153,63.2899306 123.795139,62.8458333 C123.327778,62.4020833 122.963889,61.8635417 122.703125,61.2315972 C122.442014,60.5993056 122.311111,59.8944444 122.311111,59.1159722 C122.311111,58.3378472 122.442014,57.6319444 122.703125,57.0003472 C122.963889,56.3680556 123.327778,55.8302083 123.795139,55.3861111 C124.262153,54.9420139 124.816319,54.6010417 125.457292,54.3628472 C126.098611,54.1246528 126.798958,54.0048611 127.559375,54.0048611 C128.3375,54.0048611 129.054514,54.0996528 129.709028,54.2871528 C130.363889,54.4746528 130.938889,54.7975694 131.433681,55.2552083 L129.922222,56.9041667 C129.628819,56.6017361 129.298958,56.3732639 128.932986,56.2173611 C128.566667,56.0618056 128.108333,55.9836806 127.559375,55.9836806 C127.100694,55.9836806 126.687153,56.0618056 126.315625,56.2173611 C125.945139,56.3732639 125.626736,56.5902778 125.361111,56.8694444 C125.095486,57.1493056 124.892014,57.4805556 124.75,57.865625 C124.607639,58.2506944 124.536458,58.6673611 124.536458,59.1159722 C124.536458,59.5736111 124.607639,59.9927083 124.75,60.3732639 C124.892014,60.753125 125.095486,61.0826389 125.361111,61.3618056 C125.626736,61.6416667 125.945139,61.8586806 126.315625,62.0145833 C126.687153,62.1704861 127.100694,62.2482639 127.559375,62.2482639 C128.026736,62.2482639 128.429167,62.1954861 128.768056,62.0902778 C129.106944,61.9850694 129.376736,61.8770833 129.578819,61.7673611 L129.578819,60.1871528 L127.833681,60.1871528 L127.833681,58.2090278 L131.639236,58.2090278 L131.639236,63.2923611" id="Fill-26" fill="#00A6CC"></path>
            <polyline id="Fill-27" fill="#FFFFFF" points="18.9375 72.0576389 21.0802083 72.0576389 21.0802083 75.6847222 25.2427083 75.6847222 25.2427083 72.0576389 27.3857639 72.0576389 27.3857639 81.784375 25.2427083 81.784375 25.2427083 77.5802083 21.0802083 77.5802083 21.0802083 81.784375 18.9375 81.784375 18.9375 72.0576389"></polyline>
            <path d="M33.2652778,76.9211806 C33.2652778,77.3788194 33.3364583,77.7979167 33.4788194,78.1784722 C33.6208333,78.5583333 33.8243056,78.8878472 34.0899306,79.1670139 C34.3552083,79.446875 34.6739583,79.6642361 35.0444444,79.8197917 C35.4159722,79.9756944 35.8295139,80.0534722 36.2878472,80.0534722 C36.7454861,80.0534722 37.1600694,79.9756944 37.5315972,79.8197917 C37.9020833,79.6642361 38.2204861,79.446875 38.4861111,79.1670139 C38.7517361,78.8878472 38.9552083,78.5583333 39.0972222,78.1784722 C39.2395833,77.7979167 39.3107639,77.3788194 39.3107639,76.9211806 C39.3107639,76.4729167 39.2395833,76.0559028 39.0972222,75.6708333 C38.9552083,75.2861111 38.7517361,74.9545139 38.4861111,74.6746528 C38.2204861,74.3954861 37.9020833,74.1784722 37.5315972,74.0225694 C37.1600694,73.8670139 36.7454861,73.7888889 36.2878472,73.7888889 C35.8295139,73.7888889 35.4159722,73.8670139 35.0444444,74.0225694 C34.6739583,74.1784722 34.3552083,74.3954861 34.0899306,74.6746528 C33.8243056,74.9545139 33.6208333,75.2861111 33.4788194,75.6708333 C33.3364583,76.0559028 33.2652778,76.4729167 33.2652778,76.9211806 Z M31.0399306,76.9211806 C31.0399306,76.1430556 31.1708333,75.4371528 31.4319444,74.8055556 C31.6927083,74.1732639 32.0565972,73.6354167 32.5239583,73.1913194 C32.990625,72.7475694 33.5451389,72.40625 34.1857639,72.1680556 C34.8274306,71.9298611 35.5277778,71.8100694 36.2878472,71.8100694 C37.0482639,71.8100694 37.7486111,71.9298611 38.3899306,72.1680556 C39.0309028,72.40625 39.5850694,72.7475694 40.0517361,73.1913194 C40.5194444,73.6354167 40.8833333,74.1732639 41.1440972,74.8055556 C41.4052083,75.4371528 41.5361111,76.1430556 41.5361111,76.9211806 C41.5361111,77.6996528 41.4052083,78.4045139 41.1440972,79.0371528 C40.8833333,79.66875 40.5194444,80.2072917 40.0517361,80.6510417 C39.5850694,81.0951389 39.0309028,81.4364583 38.3899306,81.6746528 C37.7486111,81.9121528 37.0482639,82.0315972 36.2878472,82.0315972 C35.5277778,82.0315972 34.8274306,81.9121528 34.1857639,81.6746528 C33.5451389,81.4364583 32.990625,81.0951389 32.5239583,80.6510417 C32.0565972,80.2072917 31.6927083,79.66875 31.4319444,79.0371528 C31.1708333,78.4045139 31.0399306,77.6996528 31.0399306,76.9211806 L31.0399306,76.9211806 Z" id="Fill-28" fill="#FFFFFF"></path>
            <polyline id="Fill-29" fill="#FFFFFF" points="47.0715278 73.9538194 44.2961806 73.9538194 44.2961806 72.0576389 51.9895833 72.0576389 51.9895833 73.9538194 49.2142361 73.9538194 49.2142361 81.784375 47.0715278 81.784375 47.0715278 73.9538194"></polyline>
            <polyline id="Fill-30" fill="#FFFFFF" points="55.3548611 72.0576389 57.4986111 72.0576389 57.4986111 79.80625 61.4684028 79.80625 61.4684028 81.784375 55.3548611 81.784375 55.3548611 72.0576389"></polyline>
            <polygon id="Fill-31" fill="#FFFFFF" points="64.8208333 81.784375 66.9635417 81.784375 66.9635417 72.0576389 64.8208333 72.0576389"></polygon>
            <polyline id="Fill-32" fill="#FFFFFF" points="71.1118056 72.0576389 74.0246528 72.0576389 78.159375 78.8170139 78.1871528 78.8170139 78.1871528 72.0576389 80.3302083 72.0576389 80.3302083 81.784375 77.5277778 81.784375 73.2826389 74.8600694 73.2555556 74.8600694 73.2555556 81.784375 71.1118056 81.784375 71.1118056 72.0576389"></polyline>
            <polyline id="Fill-33" fill="#FFFFFF" points="84.5881944 72.0576389 91.1961806 72.0576389 91.1961806 74.0364583 86.7315972 74.0364583 86.7315972 75.8493056 90.9486111 75.8493056 90.9486111 77.8274306 86.7315972 77.8274306 86.7315972 79.80625 91.4434028 79.80625 91.4434028 81.784375 84.5881944 81.784375 84.5881944 72.0576389"></polyline>
        </g>
    </g>
</svg>